<?xml version="1.0" encoding="iso-8859-1"?>
<!-- Uploaded to: SVG Repo, www.svgrepo.com, Generator: SVG Repo Mixer Tools -->
<!DOCTYPE svg PUBLIC "-//W3C//DTD SVG 1.1//EN" "http://www.w3.org/Graphics/SVG/1.1/DTD/svg11.dtd">
<svg fill="#000000" height="800px" width="800px" version="1.1" id="Capa_1" xmlns="http://www.w3.org/2000/svg" xmlns:xlink="http://www.w3.org/1999/xlink" 
	 viewBox="0 0 216.822 216.822" xml:space="preserve">
<path d="M213.892,70.582l-56.115-56.115c-1.755-1.755-4.087-2.791-6.565-2.917l-40.038-2.039c-2.849-0.148-5.574,0.907-7.583,2.917
	l-3.331,3.33c-3.899,3.9-3.899,10.246,0.001,14.147l24.762,24.762L3.326,176.363c-4.435,4.435-4.435,11.651,0,16.086l11.544,11.544
	c2.149,2.148,5.005,3.332,8.043,3.332s5.895-1.183,8.043-3.332L152.653,82.297l24.762,24.762c1.89,1.889,4.401,2.929,7.073,2.929
	c2.672,0,5.184-1.041,7.073-2.93l22.33-22.33c1.889-1.89,2.93-4.402,2.93-7.074C216.822,74.983,215.781,72.471,213.892,70.582z
	 M184.494,99.988c-0.001,0-0.003,0.001-0.006,0.001l-77.157-77.16l3.333-3.331l40.041,2.04l56.115,56.12L184.494,99.988z"/>
</svg>