<?xml version="1.0" encoding="utf-8"?>
<!-- Uploaded to: SVG Repo, www.svgrepo.com, Generator: SVG Repo Mixer Tools -->
<svg width="800px" height="800px" viewBox="0 0 24 24" fill="none" xmlns="http://www.w3.org/2000/svg">
<g id="style=linear">
<g id="calendar-cells">
<path id="rectangle" d="M2 8C2 5.79086 3.79086 4 6 4H18C20.2091 4 22 5.79086 22 8V18C22 20.2091 20.2091 22 18 22H6C3.79086 22 2 20.2091 2 18V8Z" stroke="#000000" stroke-width="1.5"/>
<path id="vector" d="M7.5 10H8.5V11H7.5V10Z" stroke="#000000" stroke-linecap="round"/>
<path id="vector_2" d="M7.5 13H8.5V14H7.5V13Z" stroke="#000000" stroke-linecap="round"/>
<path id="vector_3" d="M7.5 16H8.5V17H7.5V16Z" stroke="#000000" stroke-linecap="round"/>
<path id="vector_4" d="M11.5 10H12.5V11H11.5V10Z" stroke="#000000" stroke-linecap="round"/>
<path id="vector_5" d="M11.5 13H12.5V14H11.5V13Z" stroke="#000000" stroke-linecap="round"/>
<path id="vector_6" d="M11.5 16H12.5V17H11.5V16Z" stroke="#000000" stroke-linecap="round"/>
<path id="vector_7" d="M15.5 10H16.5V11H15.5V10Z" stroke="#000000" stroke-linecap="round"/>
<path id="vector_8" d="M15.5 13H16.5V14H15.5V13Z" stroke="#000000" stroke-linecap="round"/>
<path id="vector_9" d="M15.5 16H16.5V17H15.5V16Z" stroke="#000000" stroke-linecap="round"/>
<path id="line" d="M8 2V5.5" stroke="#000000" stroke-width="1.5" stroke-linecap="round"/>
<path id="line_2" d="M16 2V5.5" stroke="#000000" stroke-width="1.5" stroke-linecap="round"/>
</g>
</g>
</svg>