<?xml version="1.0" ?>
<!-- Uploaded to: SVG Repo, www.svgrepo.com, Generator: SVG Repo Mixer Tools -->
<svg fill="#000000" width="800px" height="800px" viewBox="0 0 512 512" xmlns="http://www.w3.org/2000/svg">
<g id="Ruler">
<path d="M460.8824,112.9819,399.0193,51.1188a17.5338,17.5338,0,0,0-24.7632,0L358.7684,66.6065,386.595,94.4309a13.1175,13.1175,0,1,1-18.551,18.551L340.22,85.1564l-15.6629,15.6618,18.6365,18.551a13.1471,13.1471,0,1,1-18.6365,18.5489l-18.551-18.5489L290.345,135.0321l18.6365,18.5489a13.1478,13.1478,0,0,1-18.6365,18.551l-18.551-18.551-15.5753,15.5752,18.551,18.6376a13.1171,13.1171,0,0,1-18.551,18.55l-18.6365-18.55L222.007,203.369l27.8244,27.9131a13.1161,13.1161,0,1,1-18.5489,18.5489l-27.8266-27.8244-15.6607,15.5752,18.5489,18.5489a13.15,13.15,0,0,1,0,18.6386,13.289,13.289,0,0,1-18.5489,0l-18.551-18.6386-15.6628,15.6629,18.551,18.551a13.1168,13.1168,0,0,1-18.551,18.5489l-18.5489-18.5489L119.37,306.0064l18.5489,18.55a13.1164,13.1164,0,0,1-18.5489,18.55l-18.551-18.55L85.1579,340.2192l27.8244,27.8244a13.1175,13.1175,0,1,1-18.551,18.551L66.6069,358.7691,51.1192,374.2557a17.5338,17.5338,0,0,0,0,24.7632l61.8631,61.8631a17.533,17.533,0,0,0,24.7611,0l323.139-323.138A17.5363,17.5363,0,0,0,460.8824,112.9819Z"/>
</g>
</svg>