<?xml version="1.0" encoding="utf-8"?>

<!-- Uploaded to: SVG Repo, www.svgrepo.com, Generator: SVG Repo Mixer Tools -->
<svg fill="#000000" height="800px" width="800px" version="1.1" id="Icons" xmlns="http://www.w3.org/2000/svg" xmlns:xlink="http://www.w3.org/1999/xlink" 
	 viewBox="0 0 32 32" xml:space="preserve">
<path d="M30,3h-2H4H2C1.4,3,1,3.4,1,4s0.4,1,1,1h1v16c0,0.6,0.4,1,1,1h9.8l-5.5,6.3c-0.4,0.4-0.3,1,0.1,1.4C8.5,29.9,8.8,30,9,30
	c0.3,0,0.6-0.1,0.8-0.3l5.2-6V28c0,0.6,0.4,1,1,1s1-0.4,1-1v-4.3l5.2,6c0.2,0.2,0.5,0.3,0.8,0.3c0.2,0,0.5-0.1,0.7-0.2
	c0.4-0.4,0.5-1,0.1-1.4L18.2,22H28c0.6,0,1-0.4,1-1V5h1c0.6,0,1-0.4,1-1S30.6,3,30,3z M24.8,8.6l-4,6c-0.3,0.4-0.8,0.6-1.3,0.3
	L15.8,13h-3.4l-3.7,3.7C8.5,16.9,8.3,17,8,17s-0.5-0.1-0.7-0.3c-0.4-0.4-0.4-1,0-1.4l4-4c0.2-0.2,0.4-0.3,0.7-0.3h4
	c0.2,0,0.3,0,0.4,0.1l3.2,1.6l3.5-5.3c0.3-0.5,0.9-0.6,1.4-0.3C25,7.5,25.1,8.1,24.8,8.6z"/>
</svg>